# xmcd
# Copyright (C) 1995-1998 Ti Kan
#
# Track frame offsets:
#       182
#       18857
#       34850
#       54827
#       69892
#       106270
#       139680
#       154710
#       165237
#       188467
#
# Disc length: 2738 seconds
#
# Revision: 0
# Processed by: cddbd v1.5.2PL0 Copyright (c) Steve Scherf et al.
# Submitted via: CD-Import v1.0
#
DISCID=680ab00a
DTITLE=Nico - Chelsea Girl
DYEAR=1967
DGENRE=
TTITLE0=The Fairest Of The Seasons
TTITLE1=These Days
TTITLE2=Little Sister
TTITLE3=Winter Song
TTITLE4=It Was A Pleasure Then
TTITLE5=Chelsea Girls
TTITLE6=I'll Keep It With Mine
TTITLE7=Somewhere There's A Feather
TTITLE8=Wrap Your Troubles In Dreams
TTITLE9=Eulogy To Lenny Bruce
EXTD=
EXTT0=
EXTT1=
EXTT2=
EXTT3=
EXTT4=
EXTT5=
EXTT6=
EXTT7=
EXTT8=
EXTT9=
PLAYORDER=
